<svg width="78" height="34" viewBox="0 0 78 34" fill="none" xmlns="http://www.w3.org/2000/svg">
<path d="M23.9735 34C21.1708 34 18.4305 34 15.6576 34C15.6576 25.6662 15.6576 17.3452 15.6576 8.99587C13.2397 8.99587 10.8516 8.99587 8.4223 8.99587C8.4223 17.3126 8.4223 25.6421 8.4223 33.9915C5.59546 33.9915 2.80838 33.9915 0 33.9915C0.00141981 22.8732 0.00141981 11.7648 0.00141981 0.63517C13.4697 0.63517 26.9309 0.63517 40.4092 0.63517C40.4092 11.7506 40.4092 22.8533 40.4092 33.9844C37.6349 33.9844 34.862 33.9844 32.055 33.9844C32.055 25.662 32.055 17.3481 32.055 9.00154C29.3517 9.00154 26.6825 9.00154 23.9735 9.00154C23.9735 17.3126 23.9735 25.6421 23.9735 34Z" fill="#F8F8F8"/>
<path d="M47.0127 33.9844C47.0127 31.2169 47.0127 28.4593 47.0127 25.6662C52.4875 25.6662 57.958 25.6662 63.5137 25.6662C57.7067 18.8679 51.955 12.132 46.1807 5.372C48.3317 3.57708 50.4713 1.7935 52.6238 0C58.2817 6.64234 63.9283 13.2705 69.6245 19.9568C69.6245 13.4761 69.6245 7.06768 69.6245 0.636587C72.4358 0.636587 75.2101 0.636587 78.0014 0.636587C78.0014 11.7492 78.0014 22.8519 78.0014 33.983C67.6851 33.9844 57.3673 33.9844 47.0127 33.9844Z" fill="#F8F8F8"/>
</svg>
